<?xml version="1.0" standalone="no"?>
<!DOCTYPE svg PUBLIC "-//W3C//DTD SVG 20010904//EN"
 "http://www.w3.org/TR/2001/REC-SVG-20010904/DTD/svg10.dtd">
<svg version="1.0" xmlns="http://www.w3.org/2000/svg"
 width="1060.000000pt" height="1060.000000pt" viewBox="0 0 1060.000000 1060.000000"
 preserveAspectRatio="xMidYMid meet">
<metadata>
Created by potrace 1.14, written by Peter Selinger 2001-2017
</metadata>
<g transform="translate(0.000000,1060.000000) scale(0.100000,-0.100000)"
fill="#000000" stroke="none">
<path d="M1252 7579 c-13 -5 -28 -7 -33 -3 -5 3 -9 1 -9 -4 0 -5 -7 -9 -15
-10 -8 -1 -22 -3 -30 -4 -8 -1 -15 -5 -15 -10 0 -5 -6 -8 -12 -7 -7 1 -26 -3
-41 -9 -16 -7 -35 -12 -43 -12 -8 0 -14 -6 -14 -12 0 -10 -2 -10 -9 0 -7 11
-9 10 -15 -3 -3 -9 -10 -13 -16 -10 -5 3 -24 -1 -42 -9 -18 -8 -50 -19 -70
-26 -37 -11 -48 -30 -53 -100 -1 -14 -5 -32 -8 -40 -3 -8 -5 -22 -5 -30 1 -23
-6 -44 -17 -52 -6 -5 -5 -8 3 -8 8 0 10 -5 5 -12 -4 -7 -8 -22 -10 -33 -2 -21
-10 -67 -16 -100 -4 -18 -20 -102 -22 -115 0 -3 -4 -11 -8 -17 -5 -8 -4 -13 3
-13 6 0 8 -5 3 -12 -8 -15 -12 -29 -15 -75 -2 -17 -6 -29 -9 -27 -4 2 -7 -6
-7 -19 1 -28 -12 -119 -18 -128 -5 -10 -17 -79 -18 -111 -1 -16 -4 -28 -8 -28
-5 0 -7 -3 -7 -7 1 -5 0 -10 -1 -13 -1 -3 -3 -23 -5 -45 -1 -22 -4 -40 -5 -40
-1 0 -3 -16 -6 -35 -2 -19 -9 -60 -15 -90 -12 -56 -17 -86 -24 -130 -1 -14 -4
-25 -5 -25 -1 0 -4 -18 -6 -40 -3 -22 -9 -57 -15 -77 -5 -20 -9 -40 -8 -45 1
-4 0 -10 -1 -13 -6 -17 -22 -114 -22 -132 0 -10 -3 -20 -7 -23 -5 -2 -7 -16
-6 -30 2 -14 0 -25 -3 -25 -4 0 -7 -12 -8 -27 -1 -26 -8 -73 -20 -127 -3 -11
-6 -30 -8 -41 -2 -11 -7 -42 -12 -70 -4 -27 -7 -56 -6 -62 2 -7 -2 -13 -8 -13
-6 0 -8 -5 -4 -11 3 -6 0 -15 -7 -20 -10 -6 -10 -9 -2 -9 9 0 10 -7 4 -22 -5
-13 -9 -26 -9 -31 0 -4 -5 -38 -12 -75 -6 -37 -12 -77 -13 -89 -1 -13 -4 -23
-7 -23 -3 0 -6 -16 -7 -36 -1 -21 -5 -44 -9 -53 -3 -9 -7 -32 -8 -51 -1 -19
-5 -41 -10 -48 -4 -7 -10 -34 -12 -60 -2 -26 -6 -58 -9 -72 -3 -14 -7 -38 -10
-55 -3 -16 -8 -43 -12 -60 -7 -31 -10 -50 -17 -100 -5 -37 -14 -81 -22 -115
-4 -14 -8 -36 -10 -50 -6 -42 -13 -83 -19 -120 -4 -19 -8 -46 -10 -60 -2 -14
-4 -25 -5 -25 -1 0 -3 -11 -5 -25 -1 -14 -5 -38 -9 -55 -3 -16 -8 -41 -11 -55
-9 -44 -18 -105 -19 -122 0 -10 -3 -18 -6 -18 -4 0 -6 -10 -5 -22 1 -13 0 -27
-3 -33 -3 -5 -8 -27 -9 -47 -3 -32 -1 -38 14 -38 11 0 23 -4 29 -9 5 -5 34
-18 64 -29 30 -11 69 -26 85 -33 17 -6 39 -14 49 -16 11 -2 25 -8 33 -14 7 -6
13 -9 13 -6 0 3 17 -3 37 -13 21 -10 40 -15 43 -12 3 4 48 8 100 10 172 5 209
7 216 14 4 4 14 4 23 0 20 -9 42 -9 58 1 6 4 14 3 18 -3 4 -6 12 -7 18 -3 12
8 50 11 204 15 47 2 83 7 83 13 0 6 5 3 10 -5 8 -12 10 -12 10 -1 0 10 3 11
13 2 8 -6 17 -8 21 -4 4 5 42 9 84 9 42 1 77 3 77 4 0 1 28 3 62 4 34 1 65 5
68 8 4 4 17 3 30 -2 13 -5 25 -6 28 -3 6 5 90 11 252 17 55 2 109 7 119 12 15
6 17 4 11 -6 -6 -9 -4 -11 6 -4 8 4 36 9 64 10 27 1 82 3 120 5 39 1 76 7 83
12 7 6 12 6 12 0 0 -5 9 -9 20 -10 11 -1 18 1 16 5 -4 7 39 8 54 2 3 -1 10 -1
15 0 20 5 81 9 178 12 53 2 97 5 97 8 0 4 49 6 303 13 31 1 57 5 57 8 0 9 21
6 38 -4 6 -5 12 -5 12 0 0 4 28 9 63 9 120 3 290 13 295 19 3 2 11 0 18 -6 8
-6 14 -7 18 0 4 6 13 8 21 4 8 -3 16 0 16 6 2 14 6 30 9 34 3 3 10 39 12 65 2
14 9 22 21 22 10 0 16 -3 14 -7 -3 -5 7 -8 21 -9 28 0 80 -8 120 -18 57 -15
70 -17 107 -22 22 -3 43 -11 47 -17 5 -8 8 -7 8 3 0 10 3 11 8 4 4 -6 17 -10
30 -9 12 1 22 -2 22 -6 0 -4 13 -6 30 -5 17 1 30 -1 30 -5 0 -8 154 -4 168 5
6 3 13 2 17 -4 4 -6 11 -7 17 -4 6 4 46 8 91 10 44 2 82 6 85 9 3 3 11 0 19
-6 7 -6 13 -7 13 -3 0 5 29 9 65 9 36 0 65 4 65 9 0 5 6 3 13 -3 8 -6 17 -8
21 -4 3 4 32 8 64 9 73 3 247 12 382 20 58 4 121 7 140 8 19 1 41 5 48 9 7 5
12 4 12 -2 0 -7 8 -7 26 -1 14 6 23 7 20 2 -2 -4 12 -6 32 -4 96 9 131 12 182
16 69 5 163 17 171 22 3 2 19 6 35 8 16 3 40 9 54 12 14 3 33 6 43 6 9 -1 17
3 17 7 0 4 6 8 13 8 30 1 70 13 85 25 13 11 14 11 7 -2 -8 -13 -7 -13 9 0 10
8 27 16 39 17 11 2 34 10 50 18 17 8 36 15 44 15 7 0 13 5 13 10 0 6 9 10 19
10 11 0 23 5 26 10 4 6 11 8 16 5 5 -4 9 -2 9 3 0 6 12 15 28 21 66 25 215
125 204 136 -4 5 -2 5 5 1 7 -3 25 7 42 23 17 17 31 28 31 25 0 -3 19 13 42
35 22 23 45 41 50 41 5 0 7 4 4 8 -3 5 1 9 9 9 8 0 12 -3 10 -7 -2 -3 -7 -33
-10 -65 -4 -33 -12 -66 -19 -74 -9 -12 -8 -13 3 -6 10 6 12 4 5 -6 -4 -8 -9
-30 -9 -49 0 -19 -3 -39 -6 -45 -14 -27 -3 -40 36 -43 22 -1 50 -3 63 -4 12
-1 22 -4 22 -7 0 -4 10 -7 23 -7 65 -3 117 -10 117 -14 0 -5 13 -6 108 -10 17
-1 32 -6 32 -11 0 -6 9 -5 20 1 11 6 20 7 20 2 0 -5 24 -9 53 -11 28 -1 56 -6
62 -12 13 -13 27 -11 19 4 -6 8 -3 8 9 -2 9 -7 24 -11 32 -7 8 3 15 3 15 0 0
-9 -28 -34 -38 -34 -16 0 -126 -83 -172 -130 -82 -84 -122 -149 -159 -257 -34
-103 -40 -140 -42 -271 -2 -143 14 -213 80 -352 9 -19 19 -37 22 -40 3 -3 11
-15 18 -28 19 -36 101 -120 161 -166 66 -50 154 -98 164 -89 3 3 6 2 6 -3 0
-9 52 -26 120 -39 14 -3 59 -7 100 -10 41 -3 104 -8 140 -10 36 -3 97 -8 135
-10 39 -3 99 -7 135 -10 101 -9 199 -16 271 -19 37 -2 72 -7 79 -11 9 -6 11
-4 5 5 -6 9 -4 11 5 5 6 -4 33 -9 58 -12 26 -2 48 -6 51 -8 5 -6 -61 -30 -71
-27 -5 1 -8 -2 -8 -6 0 -5 -6 -9 -12 -10 -114 -12 -134 -8 -223 36 -43 22 -47
22 -29 5 32 -31 111 -73 152 -79 20 -3 39 -7 42 -9 3 -2 30 1 60 7 56 10 106
34 148 72 l22 20 22 -27 21 -27 31 19 c23 14 45 18 86 16 30 -2 55 -4 55 -5 0
-1 41 -3 92 -5 50 -1 95 -5 100 -8 17 -10 266 -13 323 -4 72 11 235 79 285
117 88 67 228 244 228 287 0 7 3 13 7 13 7 0 33 81 29 90 -1 3 2 14 8 25 23
43 34 219 20 315 -17 118 -54 210 -120 305 -41 58 -135 153 -160 161 -9 3 -17
9 -17 13 0 4 -18 16 -40 26 -22 10 -40 22 -40 27 0 4 -3 7 -7 6 -5 -1 -21 5
-38 12 -16 7 -33 14 -37 15 -5 2 -10 4 -13 5 -7 4 -16 6 -60 15 -22 4 -49 10
-60 12 -25 6 -92 11 -177 15 -36 2 -65 5 -63 8 2 3 -29 6 -69 7 -39 1 -105 4
-146 7 -107 8 -229 17 -270 19 -19 1 -40 5 -47 10 -6 4 -14 3 -18 -3 -4 -6
-11 -7 -17 -4 -6 4 -34 8 -62 9 -99 5 -131 9 -138 20 -5 7 -8 6 -8 -1 0 -7
-13 -10 -32 -7 -30 4 -84 9 -146 12 -13 0 -21 5 -18 9 3 5 37 8 76 8 59 -1 71
2 76 17 3 10 13 17 22 15 9 -1 23 1 30 5 6 5 12 5 12 0 0 -4 17 -9 38 -9 102
-4 202 -13 211 -19 6 -3 11 -1 11 5 0 7 5 8 13 3 6 -4 26 -9 42 -9 17 -1 64
-5 105 -8 41 -3 109 -8 150 -12 41 -3 100 -7 130 -9 30 -3 89 -7 130 -10 118
-7 210 -18 230 -25 3 -1 9 -2 14 -1 4 1 14 -4 22 -10 8 -6 14 -8 14 -4 0 4 7
2 15 -5 8 -7 15 -10 15 -6 0 4 13 0 29 -8 16 -9 31 -12 35 -9 3 4 6 1 6 -5 0
-7 5 -12 11 -12 6 0 39 -17 73 -37 59 -35 216 -181 216 -200 0 -5 8 -18 18
-29 22 -25 54 -85 80 -154 37 -97 43 -128 54 -285 3 -42 -23 -207 -39 -245 -3
-8 -7 -25 -9 -38 -1 -13 -8 -30 -15 -38 -6 -8 -7 -14 -2 -14 5 0 23 19 41 42
18 23 32 38 32 33 0 -5 8 2 17 15 10 14 45 60 80 102 62 77 134 183 137 203 1
5 8 20 14 33 7 12 11 22 9 22 -3 0 1 27 8 59 12 61 12 208 0 271 -4 19 -8 40
-9 47 -1 7 -5 16 -9 19 -4 4 -7 14 -7 22 0 19 -61 146 -72 150 -4 2 -8 9 -8
16 0 7 -11 23 -25 36 -14 13 -25 27 -25 32 0 10 -71 78 -83 78 -4 0 -5 5 -2
10 3 6 1 10 -5 10 -7 0 -29 13 -49 28 -46 36 -134 85 -124 69 5 -8 2 -8 -9 1
-30 24 -138 50 -238 57 -30 2 -55 5 -55 5 0 1 -25 3 -55 5 -72 4 -209 13 -285
20 -64 6 -185 15 -250 18 -22 2 -46 6 -52 10 -8 5 -13 3 -13 -3 0 -6 -5 -8
-12 -4 -11 7 -45 10 -175 16 -35 2 -63 5 -63 8 0 4 -90 9 -247 14 -29 0 -53 4
-53 9 0 4 -5 6 -12 5 -13 -3 -18 44 -5 53 7 5 39 4 132 -5 11 -1 31 6 44 16
13 10 27 15 32 12 5 -3 9 -1 9 5 0 5 16 15 35 22 19 7 35 17 35 22 0 5 7 7 15
4 8 -4 17 -2 20 3 8 13 162 59 211 64 22 3 46 7 54 10 46 15 416 25 483 13 17
-4 27 -1 27 6 0 8 3 8 8 2 4 -5 23 -10 42 -11 19 -1 80 -5 135 -9 55 -4 117
-8 137 -9 21 0 38 -4 38 -7 0 -3 10 -5 22 -4 11 1 44 -2 72 -7 28 -5 69 -10
91 -13 22 -2 51 -7 65 -10 14 -3 41 -8 60 -11 19 -3 46 -7 60 -10 14 -3 39 -7
55 -10 17 -3 41 -9 55 -14 14 -5 36 -11 50 -14 14 -2 50 -12 80 -23 62 -21 86
-23 82 -5 -1 7 2 12 7 12 12 0 34 85 27 107 -3 11 -30 30 -59 43 -54 24 -55
25 -97 33 -48 10 -55 12 -62 22 -5 6 -8 5 -8 -4 0 -9 -4 -10 -12 -4 -7 6 -20
11 -28 11 -8 0 -40 5 -70 11 -30 6 -73 14 -95 17 -22 3 -51 7 -65 10 -14 3
-41 7 -60 9 -19 3 -46 7 -60 10 -14 3 -45 8 -70 10 -25 3 -59 7 -75 10 -17 3
-62 8 -100 11 -39 3 -88 8 -110 10 -99 10 -230 16 -350 15 -117 -1 -220 -6
-220 -11 0 -1 -18 -4 -40 -5 -22 -2 -67 -11 -100 -21 -33 -9 -64 -17 -70 -19
-27 -6 -68 -23 -180 -76 -49 -23 -93 -41 -97 -41 -5 1 -8 -2 -8 -8 0 -5 -9
-10 -20 -10 -11 0 -20 -4 -20 -8 0 -8 -60 -36 -72 -33 -5 0 -8 -3 -8 -9 0 -5
-4 -10 -9 -10 -7 0 -3 43 10 93 1 4 8 73 10 105 2 17 6 32 9 32 4 0 10 53 14
142 0 14 4 24 7 22 3 -2 5 14 4 34 -1 20 1 42 4 47 14 26 19 94 7 99 -7 3 -7
5 2 5 6 1 12 12 12 25 0 40 41 55 80 31 6 -3 10 -3 10 2 0 4 92 8 205 8 113 0
205 2 205 5 0 3 77 5 170 4 97 -1 170 3 170 8 0 5 5 6 10 3 9 -6 13 19 13 78
0 9 3 17 8 17 5 0 4 11 -1 25 -6 16 -6 26 1 31 6 3 8 12 5 19 -2 7 -2 16 2 20
3 3 7 16 8 28 1 12 6 47 10 77 3 30 7 64 8 75 1 11 5 26 9 33 5 7 3 12 -5 12
-8 0 -9 3 -3 8 6 4 12 25 13 47 2 22 6 49 9 60 4 11 7 38 8 60 2 22 3 40 5 40
1 0 3 12 4 28 2 26 0 27 -49 28 -27 0 -63 2 -80 3 -16 1 -33 -2 -37 -8 -5 -7
-8 -7 -8 -1 0 6 -40 10 -102 9 -65 -1 -106 3 -110 10 -5 7 -8 7 -8 1 0 -13
-89 -13 -109 -1 -9 6 -12 5 -7 -2 7 -12 -72 -11 -92 2 -7 4 -12 3 -12 -2 0 -4
-17 -7 -37 -5 -47 4 -52 4 -83 0 -14 -2 -35 0 -47 5 -12 4 -25 3 -28 -2 -11
-17 -34 1 -29 23 2 12 7 42 10 67 3 25 8 56 10 70 5 37 15 111 19 141 1 15 5
32 9 38 4 6 1 11 -6 11 -8 0 -9 3 -3 8 6 4 10 14 10 22 -1 8 1 20 4 25 3 6 6
21 7 35 1 14 2 31 3 38 1 9 30 12 117 10 63 -1 117 -6 120 -10 3 -5 11 -5 17
-1 7 4 53 8 102 9 50 2 90 3 90 4 0 1 34 3 75 5 41 2 129 7 195 11 66 3 144 7
172 8 29 0 53 4 53 8 0 4 11 4 23 -1 13 -5 30 -6 37 -1 7 4 25 6 39 3 14 -2
23 -1 19 2 -4 4 -3 17 2 30 6 15 4 27 -3 35 -9 10 -9 11 1 6 8 -5 12 1 13 16
1 13 3 37 5 53 2 17 5 50 8 75 2 24 8 60 11 80 10 53 13 70 20 131 3 31 8 67
11 80 2 13 7 47 10 74 3 28 7 63 9 78 2 16 1 26 -3 23 -3 -3 -11 -1 -19 5 -10
9 -13 8 -13 0 0 -7 -4 -10 -9 -7 -4 3 -53 8 -107 11 -55 3 -123 8 -153 10 -30
2 -82 5 -115 6 -34 1 -67 7 -75 13 -11 8 -13 8 -8 -1 6 -9 -1 -11 -25 -7 -18
3 -44 5 -58 4 -14 -1 -29 -1 -35 -1 -5 1 -32 3 -60 5 -27 2 -50 5 -50 6 0 1
-31 2 -70 2 -38 0 -78 5 -89 10 -13 7 -16 7 -12 -1 9 -14 4 -14 -28 -1 -16 6
-26 6 -26 0 0 -5 -10 -6 -22 -2 -13 4 -44 7 -70 7 -27 -1 -48 3 -48 9 0 6 -4
6 -11 -1 -6 -6 -24 -8 -42 -4 -18 3 -58 6 -89 6 -32 0 -58 3 -58 8 0 4 -8 3
-19 -2 -10 -6 -21 -7 -25 -4 -3 4 -39 8 -79 9 -39 2 -115 6 -167 9 -145 9
-288 10 -355 1 -33 -4 -78 -9 -100 -11 -22 -2 -40 -4 -40 -5 0 -3 -46 -10 -98
-15 -29 -3 -70 -8 -92 -11 -22 -2 -51 -6 -65 -7 -14 -1 -31 -6 -39 -11 -10 -7
-12 -6 -6 4 6 10 4 11 -6 4 -16 -10 -13 -9 -93 -18 -33 -3 -61 -8 -63 -10 -2
-2 -6 -21 -9 -42 -3 -22 -7 -50 -10 -64 -3 -14 -7 -47 -10 -75 -6 -70 -7 -75
-11 -75 -10 0 -41 35 -37 42 3 4 -2 8 -10 8 -8 0 -17 9 -21 19 -3 11 -15 23
-26 26 -10 4 -19 13 -19 21 0 8 -4 14 -10 14 -5 0 -18 8 -28 18 -9 9 -33 28
-52 42 -19 13 -37 27 -40 30 -3 3 -14 10 -25 16 -55 30 -71 40 -76 47 -3 5 -9
9 -12 8 -4 0 -24 7 -44 16 -21 9 -41 16 -45 15 -5 -1 -8 3 -8 10 0 6 -3 8 -6
5 -4 -3 -16 -1 -28 5 -11 7 -30 12 -40 13 -11 1 -22 7 -24 14 -2 6 -8 8 -14 5
-6 -4 -14 0 -19 7 -5 8 -9 9 -9 3 0 -8 -13 -7 -42 3 -24 8 -52 16 -63 18 -11
2 -38 7 -60 10 -22 4 -52 8 -67 9 -16 0 -28 5 -28 11 0 5 -5 3 -10 -5 -5 -8
-10 -10 -10 -4 0 7 -13 10 -30 9 -16 -1 -30 2 -30 7 0 6 -6 6 -14 -1 -10 -9
-16 -9 -21 -1 -5 8 -10 8 -20 0 -7 -6 -16 -7 -18 -3 -3 5 -41 10 -84 12 -119
5 -188 8 -188 10 0 1 -40 4 -90 6 -170 6 -190 8 -202 17 -7 5 -14 5 -17 -1 -5
-7 -15 -7 -31 -1 -14 5 -25 6 -25 1 0 -5 -8 -8 -17 -6 -10 2 -18 4 -18 5 0 2
-34 4 -193 11 -29 1 -55 6 -58 11 -3 5 -11 5 -18 -1 -9 -7 -51 -9 -51 -1 0 1
-276 13 -320 13 -16 0 -48 -3 -70 -8 -22 -4 -50 -8 -62 -7 -13 0 -23 -3 -23
-7 0 -4 -6 -8 -12 -9 -31 -2 -103 -11 -103 -12 0 -3 -41 -11 -73 -14 -18 -2
-39 -9 -46 -15 -10 -9 -16 -9 -21 -1 -4 7 -11 8 -19 1 -6 -5 -31 -12 -56 -16
-85 -11 -95 -11 -92 4 2 8 5 29 6 46 2 18 6 37 9 42 14 22 -23 32 -129 36 -60
2 -115 6 -121 10 -7 4 -14 3 -18 -3 -4 -6 -12 -7 -18 -3 -7 4 -37 8 -67 10
-101 4 -245 12 -245 13 0 1 -162 9 -260 13 -27 2 -55 6 -62 10 -6 4 -14 3 -18
-3 -4 -7 -12 -7 -25 0 -25 13 -33 13 -24 -2 5 -7 3 -8 -6 -3 -13 8 -136 16
-267 18 -29 1 -53 4 -53 9 0 4 -11 3 -25 -2 -14 -5 -25 -6 -25 -2 0 4 -28 8
-63 8 -153 4 -208 7 -213 16 -3 4 -12 4 -22 -1 -9 -5 -26 -5 -39 0 -13 5 -25
4 -28 -2 -4 -5 -11 -6 -17 -3 -11 7 -80 13 -215 17 -46 2 -86 6 -89 10 -4 3
-15 2 -25 -4 -11 -5 -19 -6 -19 -2 0 4 -42 9 -93 11 -145 5 -171 7 -184 15 -6
4 -14 3 -18 -3 -4 -6 -12 -7 -18 -3 -17 10 -47 11 -47 1 0 -5 -6 -6 -12 -1 -7
4 -38 8 -68 9 -176 7 -280 13 -287 17 -4 2 -19 1 -31 -4z m2672 -982 c13 14
38 12 32 -3 -3 -8 0 -14 7 -14 7 0 8 -3 2 -8 -5 -4 -11 -16 -11 -27 -2 -23
-12 -92 -23 -152 -5 -23 -6 -45 -3 -48 3 -3 1 -5 -4 -5 -5 0 -10 -8 -10 -17
-1 -24 -13 -122 -19 -147 -3 -12 -7 -37 -9 -56 -12 -88 -19 -126 -28 -144 -8
-14 -7 -17 3 -11 8 6 10 4 4 -5 -4 -6 -10 -29 -12 -49 -3 -20 -10 -39 -17 -43
-8 -6 -7 -8 2 -8 7 0 11 -4 8 -9 -3 -5 -8 -26 -11 -47 -3 -22 -7 -48 -10 -59
-2 -11 -7 -42 -11 -70 -3 -27 -8 -54 -11 -58 -2 -4 -7 -31 -10 -60 -5 -57 -10
-92 -13 -92 -2 0 -9 -57 -12 -102 -1 -13 -5 -23 -9 -23 -4 0 -6 -8 -5 -17 2
-10 -3 -49 -11 -88 -8 -38 -16 -86 -19 -105 -4 -33 -9 -65 -18 -120 -11 -74
-17 -108 -20 -125 -2 -11 -9 -53 -16 -92 -12 -75 -22 -91 -43 -76 -7 5 -29 8
-49 8 -21 -1 -38 3 -38 8 0 5 -7 4 -15 -3 -10 -8 -15 -9 -15 -2 0 6 -6 9 -14
6 -8 -3 -23 -1 -33 4 -12 7 -25 7 -36 1 -12 -7 -17 -6 -17 1 0 7 -8 9 -20 5
-11 -3 -20 -3 -20 2 0 4 -21 8 -48 7 -26 0 -53 4 -59 9 -9 6 -13 6 -13 -2 0
-7 -5 -9 -12 -4 -16 10 -188 11 -188 1 0 -4 -11 -3 -25 2 -16 6 -26 6 -31 -1
-4 -7 -10 -7 -18 0 -7 6 -16 8 -20 4 -9 -10 -46 -11 -46 -2 0 5 -11 4 -25 -1
-18 -7 -25 -6 -25 3 0 9 -3 8 -9 -1 -11 -19 -15 -19 -34 -4 -8 7 -17 9 -20 5
-5 -8 -156 -14 -429 -17 -76 0 -138 -4 -138 -7 0 -4 -16 -3 -34 1 -19 4 -37 5
-40 3 -3 -3 -42 -6 -86 -7 l-81 -1 4 36 c2 20 7 41 11 48 4 6 2 11 -5 11 -8 0
-8 4 -1 13 11 13 28 112 24 135 -2 6 1 12 6 12 4 0 7 12 7 28 -1 15 1 31 4 37
3 5 6 16 7 25 1 17 11 77 20 127 6 32 33 51 54 38 5 -3 10 0 11 7 0 10 2 10 6
0 2 -6 8 -10 13 -7 4 2 224 7 489 9 265 3 485 7 490 11 5 3 12 1 16 -5 4 -6
12 -7 18 -3 17 10 47 11 53 1 3 -4 10 -5 16 -2 16 10 60 11 80 2 10 -5 18 -3
21 5 3 9 7 9 17 0 8 -7 20 -9 29 -4 9 4 42 7 73 6 62 -2 66 2 64 62 -1 17 2
29 6 27 4 -3 6 4 6 13 0 10 2 34 6 53 4 19 9 46 11 60 6 39 16 101 22 140 3
19 6 46 8 60 2 14 4 27 5 30 3 7 17 98 26 165 1 11 3 20 4 20 2 0 8 44 13 88
1 9 4 17 7 17 3 0 5 20 4 45 0 26 4 45 10 45 7 0 7 3 -1 8 -6 4 -104 7 -217 7
-131 0 -206 4 -206 10 0 6 -4 4 -9 -3 -4 -8 -12 -14 -16 -14 -4 0 -12 6 -16
14 -6 9 -9 10 -9 1 0 -8 -10 -11 -27 -7 -16 2 -168 6 -338 7 -171 2 -316 6
-323 11 -6 4 -12 4 -12 -1 0 -4 -13 -8 -30 -8 -16 -1 -30 3 -30 7 0 5 -9 4
-19 -2 -14 -7 -22 -7 -26 0 -5 8 -11 8 -20 0 -9 -8 -15 -8 -20 0 -4 7 -12 7
-26 0 -10 -6 -19 -7 -19 -2 0 4 -14 7 -30 6 -17 -1 -33 2 -36 7 -3 5 -1 9 4 9
5 0 10 10 11 23 1 28 8 72 10 72 2 0 4 16 6 35 2 19 6 49 9 65 11 52 18 99 21
130 2 17 4 30 5 30 1 0 4 14 6 30 3 17 6 35 8 41 3 6 39 9 102 7 55 -2 167 -5
249 -8 167 -6 217 -6 223 0 2 2 15 0 28 -5 15 -6 26 -6 30 1 4 6 11 6 20 -2
11 -9 14 -8 14 2 0 9 3 10 8 4 4 -6 58 -11 127 -12 66 -1 140 -3 166 -4 25 -2
50 1 56 4 7 4 14 4 17 -1 5 -9 231 -1 231 8 0 1 14 4 30 5 78 9 125 14 180 21
33 4 68 7 77 6 10 0 20 3 23 9 4 5 13 5 24 -1 10 -5 21 -6 25 -3z m1613 -244
c34 -37 69 -100 78 -139 2 -10 8 -32 13 -49 5 -16 8 -38 6 -47 -1 -10 2 -18 7
-18 5 0 5 -10 -1 -24 -5 -13 -7 -26 -4 -29 12 -11 13 -92 1 -99 -8 -5 -8 -8
-1 -8 7 0 10 -13 8 -32 -2 -18 -6 -60 -9 -93 -8 -82 -13 -126 -18 -150 -2 -11
-7 -36 -11 -55 -3 -19 -8 -46 -11 -60 -3 -14 -8 -38 -11 -54 -2 -16 -7 -33
-10 -38 -3 -5 -7 -19 -10 -33 -2 -13 -9 -37 -15 -52 -6 -16 -10 -30 -11 -33 0
-3 -4 -10 -10 -17 -5 -7 -7 -17 -3 -23 3 -5 1 -10 -5 -10 -6 0 -8 -4 -5 -10 3
-5 1 -10 -5 -10 -7 0 -10 -6 -7 -14 3 -8 3 -16 -2 -18 -4 -2 -23 -32 -43 -68
-20 -36 -48 -78 -62 -93 -14 -15 -26 -30 -26 -32 0 -8 -90 -92 -94 -88 -2 2 0
21 4 41 9 38 19 109 26 174 2 20 8 48 14 63 6 17 7 24 0 20 -6 -4 -7 2 -1 18
5 13 12 47 15 76 3 29 8 62 11 74 5 23 14 82 20 132 2 17 4 30 5 30 1 0 3 11
5 25 2 14 6 43 10 65 3 22 8 56 9 75 2 19 5 44 9 55 3 11 8 40 11 65 3 25 8
56 11 70 3 14 6 37 7 53 1 15 5 27 11 27 5 0 4 6 -2 14 -7 9 -8 17 -2 20 5 3
8 17 6 31 -1 14 1 25 4 25 3 0 6 10 7 23 2 45 12 112 19 130 4 9 5 24 1 32 -3
8 -1 15 5 15 5 0 9 6 8 13 -3 25 1 67 7 67 4 0 22 -17 41 -37z m2368 -2253 c3
-5 1 -10 -4 -10 -6 0 -11 5 -11 10 0 6 2 10 4 10 3 0 8 -4 11 -10z"/>
<path d="M10370 4468 c-27 -46 -42 -67 -66 -97 -24 -29 -114 -120 -114 -115 0
2 -13 -9 -29 -24 -36 -34 -70 -62 -75 -62 -3 0 -20 -13 -38 -30 -18 -16 -38
-30 -45 -30 -13 0 -14 -20 -2 -30 11 -10 66 -97 91 -145 41 -79 63 -156 75
-262 3 -29 8 -53 11 -53 24 0 213 183 220 213 1 4 9 22 18 39 9 17 18 52 20
77 2 25 4 48 5 51 1 3 1 8 0 13 0 4 -4 40 -7 80 -3 39 -7 92 -9 117 -2 25 -7
87 -11 139 -6 86 -9 118 -14 131 -1 3 -2 8 -1 13 2 16 -10 5 -29 -25z"/>
</g>
</svg>
